<svg xmlns="http://www.w3.org/2000/svg" width="491.001" height="511.999" viewBox="0 0 491.001 511.999">
  <g id="img" transform="translate(-84.292 -43.522)">
    <g id="Plants">
      <g id="Group_5" data-name="Group 5">
        <g id="Group_2" data-name="Group 2">
          <path id="Path_1" data-name="Path 1" d="M123.33,340.855l6.2-1.572a151.84,151.84,0,0,0,3.862-24.939c1.6-20.179-6.234-35.34-15.991-41.619-11.585-7.456-17.661-.642-16.963,4.713.735,5.656,6.855,13.636,9.771,19.154C114.431,304.582,120.82,316.681,123.33,340.855Z" fill="#27debf"/>
          <path id="Path_2" data-name="Path 2" d="M123.33,340.855l6.2-1.572a151.84,151.84,0,0,0,3.862-24.939c1.6-20.179-6.234-35.34-15.991-41.619-11.585-7.456-17.661-.642-16.963,4.713.735,5.656,6.855,13.636,9.771,19.154C114.431,304.582,120.82,316.681,123.33,340.855Z" opacity="0.2"/>
          <g id="Group_1" data-name="Group 1">
            <path id="Path_3" data-name="Path 3" d="M126.316,340.556a.435.435,0,0,1-.093-.009.458.458,0,0,1-.356-.541c7.414-35.834-7.831-61.372-17.243-66.492a.456.456,0,1,1,.437-.8c9.924,5.4,25.3,30.732,17.7,67.48A.456.456,0,0,1,126.316,340.556Z" fill="#fff"/>
          </g>
        </g>
        <g id="Group_4" data-name="Group 4">
          <path id="Path_4" data-name="Path 4" d="M123.33,340.855a51.692,51.692,0,0,0-2.569-19.846c-3.522-9.86-9.051-19.013-20.106-22.387s-19.772,4.635-14.29,12,25.832,11.933,29.8,35Z" fill="#27debf"/>
          <g id="Group_3" data-name="Group 3">
            <path id="Path_5" data-name="Path 5" d="M120.169,343.417h-.042a.458.458,0,0,1-.415-.5c1.659-18.579-10.889-37.012-27.4-40.252a.457.457,0,1,1,.175-.9c16.948,3.326,29.833,22.207,28.136,41.229A.458.458,0,0,1,120.169,343.417Z" fill="#fff"/>
          </g>
        </g>
      </g>
      <g id="Group_8" data-name="Group 8">
        <g id="Group_6" data-name="Group 6">
          <path id="Path_6" data-name="Path 6" d="M525.854,490.784s2.11-19.924,14.55-33.307,25.716-13.256,30.887-8.456-.146,12.288-11.7,19.576c-9.892,6.241-22.966,20.4-26.992,29.965Z" fill="#27debf"/>
          <path id="Path_7" data-name="Path 7" d="M525.854,490.784s2.11-19.924,14.55-33.307,25.716-13.256,30.887-8.456-.146,12.288-11.7,19.576c-9.892,6.241-22.966,20.4-26.992,29.965Z" opacity="0.2"/>
        </g>
        <g id="Group_7" data-name="Group 7">
          <path id="Path_8" data-name="Path 8" d="M528.72,494.549a.507.507,0,0,1-.117-.015.465.465,0,0,1-.332-.565c5.288-20.32,23.033-40.793,37.977-43.811a.463.463,0,1,1,.183.907c-14.64,2.956-32.054,23.114-37.262,43.137A.467.467,0,0,1,528.72,494.549Z" fill="#fff"/>
        </g>
      </g>
      <g id="Group_12" data-name="Group 12">
        <path id="Path_9" data-name="Path 9" d="M528,537.47s9.19,2.607,15.81-1.945c5.659-3.89,4.252-8.042,4.907-11.239s3.429-4.917,8.057-5.523c5.706-.746,11.03-1.639,12.029-7.649.88-5.307-7.887-8.173-5.276-13.342,1.976-3.912,6.414-6.521,10.072-9.455s1.48-9.2-7.261-9.206c-10.831-.013-13.088,3.974-17.921,4.657s-7.529-2.149-12.812-1.455c-5.84.766-8.7,6.346-8.836,13.325Z" fill="#27debf"/>
        <g id="Group_9" data-name="Group 9">
          <path id="Path_10" data-name="Path 10" d="M527.4,517.588a.478.478,0,0,1-.155-.026.465.465,0,0,1-.282-.592c4.824-13.572,30.808-32.49,41.758-34.425a.463.463,0,0,1,.161.911c-10.767,1.9-36.307,20.491-41.046,33.823A.463.463,0,0,1,527.4,517.588Z" fill="#fff"/>
        </g>
        <g id="Group_10" data-name="Group 10">
          <path id="Path_11" data-name="Path 11" d="M562.967,509.618a.452.452,0,0,1-.212-.052c-6.77-3.48-18.235-6.017-27.051-4.125a.469.469,0,0,1-.55-.357.463.463,0,0,1,.356-.549c9.027-1.932,20.751.652,27.668,4.21a.462.462,0,0,1-.211.874Z" fill="#fff"/>
        </g>
        <g id="Group_11" data-name="Group 11">
          <path id="Path_12" data-name="Path 12" d="M540.4,500.736h0a.461.461,0,0,1-.462-.463c.016-8.119-2.734-12.067-2.761-12.106a.463.463,0,0,1,.753-.54c.12.169,2.952,4.2,2.934,12.647A.464.464,0,0,1,540.4,500.736Z" fill="#fff"/>
        </g>
      </g>
    </g>
    <g id="Resume">
      <g id="Group_15" data-name="Group 15">
        <path id="Path_13" data-name="Path 13" d="M200.584,44.541l.8-.463a5.154,5.154,0,0,1,4.656,0L337.887,120.1a5.136,5.136,0,0,1,2.329,4.027V307.652a5.135,5.135,0,0,1-2.328,4.027l-.8.463a5.149,5.149,0,0,1-4.657,0L200.585,236.122a5.139,5.139,0,0,1-2.328-4.027V48.568A5.135,5.135,0,0,1,200.584,44.541Z" fill="#fafafa"/>
        <path id="Path_14" data-name="Path 14" d="M340.216,215.889V124.127a4.741,4.741,0,0,0-.681-2.293l-7.514,4.333v185.74l.409.235a5.15,5.15,0,0,0,4.656,0l.8-.463a5.135,5.135,0,0,0,2.328-4.027Z" fill="#e0e0e0"/>
        <path id="Path_15" data-name="Path 15" d="M200.584,47.226l131.843,76.022a5.136,5.136,0,0,1,2.329,4.027V310.8c0,1.483-1.043,2.085-2.329,1.342L200.585,236.122a5.139,5.139,0,0,1-2.328-4.027V48.568C198.256,47.085,199.3,46.485,200.584,47.226Z" fill="#f5f5f5"/>
        <path id="Path_16" data-name="Path 16" d="M216.963,69.264,316.047,126.4a5.135,5.135,0,0,1,2.328,4.027v7.224c0,1.483-1.042,2.083-2.328,1.342L216.963,81.857a5.143,5.143,0,0,1-2.328-4.027V70.607C214.635,69.123,215.678,68.522,216.963,69.264Z" fill="#e0e0e0"/>
        <ellipse id="Ellipse_1" data-name="Ellipse 1" cx="11.141" cy="19.285" rx="11.141" ry="19.285" transform="matrix(0.866, -0.5, 0.5, 0.866, 208.982, 105.588)" fill="#e0e0e0"/>
        <g id="Group_13" data-name="Group 13">
          <path id="Path_17" data-name="Path 17" d="M228.394,106.033c-2.644-1.525-4.789-.289-4.789,2.76a10.572,10.572,0,0,0,4.789,8.285c2.645,1.524,4.789.289,4.789-2.761A10.566,10.566,0,0,0,228.394,106.033Z" fill="#27debf"/>
          <path id="Path_18" data-name="Path 18" d="M229.644,119.326l-2.717-1.567c-4.344-2.5-7.867-.474-7.867,4.537v.681a27.469,27.469,0,0,0,9.225,9.484c3.563,2.054,6.8,2.332,9.226,1.156v-.682A17.36,17.36,0,0,0,229.644,119.326Z" fill="#27debf"/>
        </g>
        <path id="Path_19" data-name="Path 19" d="M217.547,138.878l21.479,12.386a6.229,6.229,0,0,1,2.91,4.826c0,1.738-1.3,2.4-2.91,1.47l-21.479-12.385a6.229,6.229,0,0,1-2.91-4.826C214.637,138.611,215.939,137.951,217.547,138.878Z" fill="#e0e0e0"/>
        <path id="Path_20" data-name="Path 20" d="M217.547,151.463l21.479,12.386a6.229,6.229,0,0,1,2.91,4.826c0,1.738-1.3,2.4-2.91,1.47L217.547,157.76a6.229,6.229,0,0,1-2.91-4.826C214.637,151.2,215.939,150.537,217.547,151.463Z" fill="#e0e0e0"/>
        <path id="Path_21" data-name="Path 21" d="M217.547,164.048l21.479,12.386a6.229,6.229,0,0,1,2.91,4.826c0,1.738-1.3,2.4-2.91,1.47l-21.479-12.385a6.229,6.229,0,0,1-2.91-4.826C214.637,163.781,215.939,163.122,217.547,164.048Z" fill="#e0e0e0"/>
        <path id="Path_22" data-name="Path 22" d="M217.547,176.633l21.479,12.386a6.229,6.229,0,0,1,2.91,4.826c0,1.738-1.3,2.4-2.91,1.47L217.547,182.93a6.229,6.229,0,0,1-2.91-4.826C214.637,176.366,215.939,175.707,217.547,176.633Z" fill="#e0e0e0"/>
        <path id="Path_23" data-name="Path 23" d="M217.547,195.529l21.479,12.386a6.42,6.42,0,0,1,2.91,5.034v12.177c0,1.854-1.3,2.6-2.91,1.678l-21.479-12.385a6.42,6.42,0,0,1-2.91-5.034V197.207C214.637,195.354,215.939,194.6,217.547,195.529Z" fill="#27debf"/>
        <g id="Group_14" data-name="Group 14">
          <path id="Path_24" data-name="Path 24" d="M261.226,113.675l54.239,31.274a6.232,6.232,0,0,1,2.91,4.827c0,1.738-1.3,2.4-2.91,1.47l-54.239-31.275a6.229,6.229,0,0,1-2.91-4.826C258.316,113.407,259.618,112.748,261.226,113.675Z" fill="#27debf"/>
          <path id="Path_25" data-name="Path 25" d="M261.226,126.268l54.239,31.275a6.227,6.227,0,0,1,2.91,4.826c0,1.738-1.3,2.4-2.91,1.47l-54.239-31.275a6.229,6.229,0,0,1-2.91-4.826C258.316,126,259.618,125.342,261.226,126.268Z" fill="#27debf"/>
          <path id="Path_26" data-name="Path 26" d="M261.226,138.862l54.239,31.275a6.229,6.229,0,0,1,2.91,4.826c0,1.738-1.3,2.4-2.91,1.47l-54.239-31.275a6.227,6.227,0,0,1-2.91-4.826C258.316,138.593,259.618,137.935,261.226,138.862Z" fill="#27debf"/>
        </g>
      </g>
    </g>
    <g id="Photo_2" data-name="Photo 2">
      <g id="Group_16" data-name="Group 16">
        <path id="Path_27" data-name="Path 27" d="M446.866,160.692l5.1-2.941a6.442,6.442,0,0,1,5.82,0l114.3,65.906a6.424,6.424,0,0,1,2.91,5.034v144.4a6.42,6.42,0,0,1-2.91,5.034l-5.1,2.941a6.442,6.442,0,0,1-5.82,0L446.849,315.163a6.424,6.424,0,0,1-2.91-5.034l.015-144.4A6.421,6.421,0,0,1,446.866,160.692Z" fill="#455a64"/>
        <path id="Path_28" data-name="Path 28" d="M574.995,300.893v-72.2a5.936,5.936,0,0,0-.852-2.865l-15.528,8.954V379.6l2.55,1.471a6.442,6.442,0,0,0,5.82,0l5.1-2.941a6.42,6.42,0,0,0,2.91-5.034Z" fill="#263238"/>
        <path id="Path_29" data-name="Path 29" d="M446.866,164.048l114.3,65.906a6.424,6.424,0,0,1,2.91,5.034v144.4c0,1.854-1.3,2.606-2.91,1.679L446.849,315.163a6.424,6.424,0,0,1-2.91-5.034l.015-144.4C443.954,163.872,445.258,163.12,446.866,164.048Z" fill="#37474f"/>
        <path id="Path_30" data-name="Path 30" d="M552.967,234.617l-97.919-56.462c-1.608-.926-2.91-.175-2.91,1.678V289.608a6.422,6.422,0,0,0,2.91,5.034l97.921,56.46c1.606.926,2.91.176,2.91-1.678V239.651A6.42,6.42,0,0,0,552.967,234.617Z" fill="#fff"/>
        <path id="Path_31" data-name="Path 31" d="M474.808,202.681c5.207,3,9.429,10.306,9.429,16.31s-4.222,8.44-9.429,5.437-9.429-10.3-9.429-16.31S469.6,199.678,474.808,202.681Z" fill="#27debf"/>
        <path id="Path_32" data-name="Path 32" d="M499.3,269.5l-17.534-26.39c-2.836-4.269-7.74-4.492-10.951-.5l-18.662,23.2v23.861a6.42,6.42,0,0,0,2.91,5.034l97.909,56.427c1.608.926,2.911.175,2.911-1.679v-61.9l-24.324-51.424c-2.192-4.63-6.3-4.945-9.172-.7Z" fill="#27debf"/>
      </g>
    </g>
    <g id="Briefcase">
      <g id="Group_19" data-name="Group 19">
        <path id="Path_33" data-name="Path 33" d="M471.617,486.432l32.04-18.474a12.844,12.844,0,0,0,5.82-10.068V276.122a12.846,12.846,0,0,0-5.821-10.068L285.976,140.54a12.877,12.877,0,0,0-11.64,0L242.3,159.013a12.844,12.844,0,0,0-5.82,10.068V350.848a12.842,12.842,0,0,0,5.82,10.068L459.975,486.432A12.879,12.879,0,0,0,471.617,486.432Z" fill="#455a64"/>
        <path id="Path_34" data-name="Path 34" d="M509.476,276.122a11.876,11.876,0,0,0-1.706-5.728l-47.435,27.35V486.6a12.925,12.925,0,0,0,11.276-.166l32.05-18.48a12.843,12.843,0,0,0,5.815-10.06Z" fill="#37474f"/>
        <path id="Path_35" data-name="Path 35" d="M459.975,291.24,242.3,165.725c-3.215-1.853-5.82-.35-5.82,3.356V350.848a12.842,12.842,0,0,0,5.82,10.068L459.975,486.432c3.215,1.854,5.821.352,5.821-3.356V301.308A12.844,12.844,0,0,0,459.975,291.24Z" fill="#37474f"/>
        <path id="Path_36" data-name="Path 36" d="M479.078,280.227a12.844,12.844,0,0,1,5.82,10.068V478.773l5.461-3.148V287.146a12.848,12.848,0,0,0-5.82-10.068l-223.5-128.87-5.459,3.148Z" fill="#263238"/>
        <path id="Path_37" data-name="Path 37" d="M484.538,277.077,261.4,148.413l-5.635,3.047L479.078,280.227a11.892,11.892,0,0,1,4.114,4.337l5.46-3.148h0A11.907,11.907,0,0,0,484.538,277.077Z" fill="#37474f"/>
        <g id="Group_17" data-name="Group 17">
          <path id="Path_38" data-name="Path 38" d="M450.71,248.118l-3.844-2.215a6.434,6.434,0,0,0-5.82,0l-14.764,8.512-2.461-.746v3.148h0a2.041,2.041,0,0,0,1.206,1.678l5.1,2.941a6.442,6.442,0,0,0,5.82,0l16.02-9.237a2.044,2.044,0,0,0,1.2-1.678h0v-3.148Z" fill="#263238"/>
          <path id="Path_39" data-name="Path 39" d="M451.965,245.693l-5.1-2.94a6.442,6.442,0,0,0-5.82,0l-16.019,9.237c-1.608.926-1.608,2.43,0,3.356l5.1,2.94a6.434,6.434,0,0,0,5.82,0l16.02-9.237C453.571,248.123,453.571,246.621,451.965,245.693Z" fill="#455a64"/>
        </g>
        <g id="Group_18" data-name="Group 18">
          <path id="Path_40" data-name="Path 40" d="M319.669,172.568l-3.843-2.216a6.445,6.445,0,0,0-5.821,0l-14.763,8.514-2.461-.746v3.148h0a2.043,2.043,0,0,0,1.206,1.678l5.1,2.94a6.434,6.434,0,0,0,5.82,0l16.02-9.236a2.046,2.046,0,0,0,1.2-1.678h0v-3.149Z" fill="#263238"/>
          <path id="Path_41" data-name="Path 41" d="M320.926,170.144l-5.1-2.94a6.442,6.442,0,0,0-5.82,0l-16.02,9.237c-1.608.926-1.608,2.428,0,3.356l5.1,2.94a6.442,6.442,0,0,0,5.82,0l16.02-9.237C322.532,172.574,322.532,171.07,320.926,170.144Z" fill="#455a64"/>
        </g>
        <path id="Path_42" data-name="Path 42" d="M362.054,171.816V190.7L351.14,197V168.205c0-1.49,1.035-2.081,2.325-1.342Z" fill="#263238"/>
        <path id="Path_43" data-name="Path 43" d="M419.3,191.845v35.1l-8.1,4.685-5.459-3.155V199.685a5.166,5.166,0,0,0-2.324-4.027l-41.361-23.841-8.589-4.953c-1.29-.738-2.325-.148-2.325,1.342V197l-5.469-3.155V158.755a2.619,2.619,0,0,1,.039-.456,5.165,5.165,0,0,1,2.3-3.571l3.454-2a5.159,5.159,0,0,1,4.651,0l60.863,35.091A5.148,5.148,0,0,1,419.3,191.845Z" fill="#455a64"/>
        <path id="Path_44" data-name="Path 44" d="M411.2,196.53v35.1l-5.459-3.155V199.685a5.166,5.166,0,0,0-2.324-4.027l-41.361-23.841-8.589-4.953c-1.29-.738-2.325-.148-2.325,1.342V197l-5.469-3.155V158.755a2.619,2.619,0,0,1,.039-.456c.2-1.141,1.156-1.544,2.3-.886L408.871,192.5A5.186,5.186,0,0,1,411.2,196.53Z" fill="#37474f"/>
      </g>
    </g>
    <g id="Folder">
      <g id="Group_27" data-name="Group 27">
        <g id="Group_20" data-name="Group 20">
          <path id="Path_45" data-name="Path 45" d="M493.1,549.583l5.459-3.149-5.459-157.2a6.447,6.447,0,0,0-2.91-5.034l-103.381-59.61a10.466,10.466,0,0,1-4.011-4.849l-3.26-9.4a10.236,10.236,0,0,0-4.032-4.809l-48.735-27.223c-1.613-.9-2.933-.129-2.933,1.717V448.629a6.444,6.444,0,0,0,2.91,5.034Z" fill="#27debf"/>
          <path id="Path_46" data-name="Path 46" d="M493.1,549.583l5.459-3.149-5.459-157.2a6.447,6.447,0,0,0-2.91-5.034l-103.381-59.61a10.466,10.466,0,0,1-4.011-4.849l-3.26-9.4a10.236,10.236,0,0,0-4.032-4.809l-48.735-27.223c-1.613-.9-2.933-.129-2.933,1.717V448.629a6.444,6.444,0,0,0,2.91,5.034Z" opacity="0.2"/>
        </g>
        <g id="Group_23" data-name="Group 23">
          <path id="Path_47" data-name="Path 47" d="M413.525,283.333,528.989,349.91a5.135,5.135,0,0,1,2.328,4.027V543.758c0,1.483-1.042,2.085-2.328,1.342L413.527,478.524A5.141,5.141,0,0,1,411.2,474.5V284.676C411.2,283.192,412.239,282.591,413.525,283.333Z" fill="#fff"/>
          <g id="Group_21" data-name="Group 21" opacity="0.5">
            <path id="Path_48" data-name="Path 48" d="M530.033,546.087a2.8,2.8,0,0,1-1.38-.4L413.191,479.1a5.8,5.8,0,0,1-2.664-4.607V284.676a2.077,2.077,0,0,1,3.336-1.925l115.463,66.578a5.8,5.8,0,0,1,2.664,4.607V543.758a2.264,2.264,0,0,1-1.018,2.086A1.855,1.855,0,0,1,530.033,546.087Zm-117.545-262.4a.55.55,0,0,0-.273.064,1.042,1.042,0,0,0-.345.925V474.5a4.467,4.467,0,0,0,1.992,3.445l115.462,66.579a.777.777,0,0,0,1.32-.762V353.936a4.474,4.474,0,0,0-1.992-3.446L413.189,283.914A1.462,1.462,0,0,0,412.488,283.686Z" fill="#e0e0e0"/>
          </g>
          <g id="Group_22" data-name="Group 22">
            <path id="Path_49" data-name="Path 49" d="M425.027,308.855l54.239,31.274a6.233,6.233,0,0,1,2.911,4.827c0,1.738-1.3,2.4-2.91,1.47l-54.24-31.275a6.233,6.233,0,0,1-2.91-4.826C422.117,308.587,423.421,307.929,425.027,308.855Z" fill="#37474f"/>
            <path id="Path_50" data-name="Path 50" d="M425.027,327.744l92.461,53.308a6.233,6.233,0,0,1,2.91,4.826c0,1.738-1.3,2.4-2.91,1.47l-92.461-53.307a6.235,6.235,0,0,1-2.91-4.827C422.117,327.476,423.421,326.818,425.027,327.744Z" fill="#e0e0e0"/>
            <path id="Path_51" data-name="Path 51" d="M425.027,346.634l92.461,53.308a6.233,6.233,0,0,1,2.91,4.826c0,1.738-1.3,2.4-2.91,1.47L425.027,352.93a6.231,6.231,0,0,1-2.91-4.826C422.117,346.366,423.421,345.708,425.027,346.634Z" fill="#e0e0e0"/>
            <path id="Path_52" data-name="Path 52" d="M425.027,365.525l92.461,53.308a6.233,6.233,0,0,1,2.91,4.826c0,1.738-1.3,2.4-2.91,1.47l-92.461-53.308a6.231,6.231,0,0,1-2.91-4.826C422.117,365.256,423.421,364.6,425.027,365.525Z" fill="#e0e0e0"/>
            <path id="Path_53" data-name="Path 53" d="M425.027,384.415l92.461,53.308a6.233,6.233,0,0,1,2.91,4.826c0,1.738-1.3,2.4-2.91,1.47l-92.461-53.308a6.231,6.231,0,0,1-2.91-4.826C422.117,384.147,423.421,383.489,425.027,384.415Z" fill="#e0e0e0"/>
            <path id="Path_54" data-name="Path 54" d="M425.027,403.306l92.461,53.308a6.233,6.233,0,0,1,2.91,4.826c0,1.738-1.3,2.4-2.91,1.47L425.027,409.6a6.231,6.231,0,0,1-2.91-4.826C422.117,403.037,423.421,402.379,425.027,403.306Z" fill="#e0e0e0"/>
            <path id="Path_55" data-name="Path 55" d="M425.027,422.2,517.488,475.5a6.233,6.233,0,0,1,2.91,4.826c0,1.738-1.3,2.4-2.91,1.47l-92.461-53.308a6.233,6.233,0,0,1-2.91-4.826C422.117,421.928,423.421,421.27,425.027,422.2Z" fill="#e0e0e0"/>
            <path id="Path_56" data-name="Path 56" d="M425.027,441.086l92.461,53.308a6.233,6.233,0,0,1,2.91,4.826c0,1.738-1.3,2.4-2.91,1.47l-92.461-53.308a6.233,6.233,0,0,1-2.91-4.826C422.117,440.818,423.421,440.16,425.027,441.086Z" fill="#e0e0e0"/>
          </g>
        </g>
        <g id="Group_26" data-name="Group 26">
          <g id="Group_24" data-name="Group 24">
            <path id="Path_57" data-name="Path 57" d="M397.144,292.766l115.463,66.577a5.143,5.143,0,0,1,2.328,4.027V553.192c0,1.483-1.043,2.085-2.328,1.342L397.146,487.958a5.135,5.135,0,0,1-2.328-4.027V294.109C394.816,292.627,395.858,292.025,397.144,292.766Z" fill="#fff"/>
            <path id="Path_58" data-name="Path 58" d="M513.653,555.522a2.786,2.786,0,0,1-1.382-.405L396.81,488.539a5.8,5.8,0,0,1-2.664-4.609l0-189.822a2.077,2.077,0,0,1,3.337-1.924l115.463,66.578a5.8,5.8,0,0,1,2.664,4.607V553.192a2.3,2.3,0,0,1-1.019,2.088A1.848,1.848,0,0,1,513.653,555.522Zm-117.548-262.4a.551.551,0,0,0-.273.064,1.041,1.041,0,0,0-.345.924l0,189.822a4.474,4.474,0,0,0,1.992,3.446l115.462,66.577a.776.776,0,0,0,1.32-.761V363.37a4.478,4.478,0,0,0-1.992-3.446L396.808,293.348A1.473,1.473,0,0,0,396.105,293.121Z" fill="#e0e0e0"/>
          </g>
          <g id="Group_25" data-name="Group 25">
            <path id="Path_59" data-name="Path 59" d="M408.646,318.289l54.239,31.274a6.237,6.237,0,0,1,2.911,4.827c0,1.738-1.3,2.4-2.91,1.47l-54.24-31.275a6.229,6.229,0,0,1-2.91-4.826C405.736,318.021,407.039,317.363,408.646,318.289Z" fill="#e0e0e0"/>
            <path id="Path_60" data-name="Path 60" d="M408.646,337.179l92.46,53.308a6.234,6.234,0,0,1,2.911,4.826c0,1.738-1.3,2.4-2.91,1.47l-92.461-53.308a6.227,6.227,0,0,1-2.91-4.826C405.736,336.91,407.039,336.252,408.646,337.179Z" fill="#e0e0e0"/>
            <path id="Path_61" data-name="Path 61" d="M408.646,356.069l92.46,53.308a6.234,6.234,0,0,1,2.911,4.826c0,1.738-1.3,2.4-2.91,1.47l-92.461-53.308a6.227,6.227,0,0,1-2.91-4.826C405.736,355.8,407.039,355.143,408.646,356.069Z" fill="#e0e0e0"/>
            <path id="Path_62" data-name="Path 62" d="M408.646,374.959l92.46,53.308a6.234,6.234,0,0,1,2.911,4.826c0,1.738-1.3,2.4-2.91,1.47l-92.461-53.308a6.227,6.227,0,0,1-2.91-4.826C405.736,374.691,407.039,374.033,408.646,374.959Z" fill="#e0e0e0"/>
            <path id="Path_63" data-name="Path 63" d="M408.646,393.85l92.46,53.308a6.234,6.234,0,0,1,2.911,4.826c0,1.738-1.3,2.4-2.91,1.47l-92.461-53.308a6.227,6.227,0,0,1-2.91-4.826C405.736,393.581,407.039,392.923,408.646,393.85Z" fill="#e0e0e0"/>
            <path id="Path_64" data-name="Path 64" d="M408.646,412.74l92.46,53.308a6.234,6.234,0,0,1,2.911,4.826c0,1.738-1.3,2.4-2.91,1.47l-92.461-53.308a6.229,6.229,0,0,1-2.91-4.826C405.736,412.472,407.039,411.814,408.646,412.74Z" fill="#e0e0e0"/>
            <path id="Path_65" data-name="Path 65" d="M408.646,431.631l92.46,53.308a6.234,6.234,0,0,1,2.911,4.826c0,1.738-1.3,2.4-2.91,1.47l-92.461-53.308a6.229,6.229,0,0,1-2.91-4.826C405.736,431.362,407.039,430.7,408.646,431.631Z" fill="#e0e0e0"/>
            <path id="Path_66" data-name="Path 66" d="M408.646,450.521l92.46,53.308a6.234,6.234,0,0,1,2.911,4.826c0,1.738-1.3,2.4-2.91,1.47l-92.461-53.308a6.229,6.229,0,0,1-2.91-4.826C405.736,450.252,407.039,449.593,408.646,450.521Z" fill="#e0e0e0"/>
          </g>
        </g>
        <path id="Path_67" data-name="Path 67" d="M493.1,549.583,466.407,404.915a8.292,8.292,0,0,0-3.519-4.979L299.447,305.695c-1.6-.922-2.636-.192-2.3,1.623l26.082,141.368a8.286,8.286,0,0,0,3.519,4.978Z" fill="#27debf"/>
      </g>
    </g>
    <g id="Photo_1" data-name="Photo 1">
      <g id="Group_29" data-name="Group 29">
        <path id="Path_68" data-name="Path 68" d="M291.077,373.487V467.52a6.424,6.424,0,0,0,2.91,5.034l65.159,37.571a5.468,5.468,0,0,0,8.37-4.827V411.266a6.424,6.424,0,0,0-2.91-5.034l-65.16-37.571a5.468,5.468,0,0,0-8.37,4.826Z" fill="#455a64"/>
        <path id="Path_69" data-name="Path 69" d="M367.517,458.283V411.266a5.936,5.936,0,0,0-.852-2.865l-8.191,4.723v96.612l.673.389a6.249,6.249,0,0,0,5.639.1h0a6.23,6.23,0,0,0,2.729-4.928Z" fill="#263238"/>
        <path id="Path_70" data-name="Path 70" d="M293.987,371.809l65.16,37.571a6.424,6.424,0,0,1,2.91,5.034v94.033c0,1.853-1.3,2.6-2.91,1.678l-65.159-37.571a6.424,6.424,0,0,1-2.91-5.034V373.487C291.077,371.634,292.379,370.882,293.987,371.809Z" fill="#37474f"/>
        <path id="Path_71" data-name="Path 71" d="M299.447,381.254l54.24,31.275a6.42,6.42,0,0,1,2.91,5.034v68.846c0,1.854-1.3,2.6-2.91,1.678l-54.239-31.275a6.422,6.422,0,0,1-2.911-5.034V382.932C296.537,381.078,297.84,380.328,299.447,381.254Z" fill="#fff"/>
        <path id="Path_72" data-name="Path 72" d="M309.658,397.323a14.238,14.238,0,0,1,6.451,11.158c0,4.109-2.889,5.775-6.451,3.72a14.236,14.236,0,0,1-6.452-11.159C303.206,396.932,306.095,395.267,309.658,397.323Z" fill="#27debf"/>
        <g id="Group_28" data-name="Group 28">
          <path id="Path_73" data-name="Path 73" d="M337.2,421.8l-13.368,19.728L313.684,426.25a3.7,3.7,0,0,0-6.34-.289l-10.806,13.431v12.386a6.42,6.42,0,0,0,2.909,5.033l54.24,31.275c1.608.926,2.91.176,2.91-1.678V451.984l-14.084-29.775C341.246,419.529,338.868,419.346,337.2,421.8Z" fill="#27debf"/>
          <path id="Path_74" data-name="Path 74" d="M337.2,421.8l-13.368,19.728L313.684,426.25a3.7,3.7,0,0,0-6.34-.289l-10.806,13.431v12.386a6.42,6.42,0,0,0,2.909,5.033l54.24,31.275c1.608.926,2.91.176,2.91-1.678V451.984l-14.084-29.775C341.246,419.529,338.868,419.346,337.2,421.8Z" opacity="0.2"/>
        </g>
      </g>
    </g>
    <g id="Certificate">
      <g id="Group_37" data-name="Group 37">
        <g id="Group_30" data-name="Group 30">
          <path id="Path_75" data-name="Path 75" d="M85.914,356.2a141.735,141.735,0,0,0,68.663-121.416V187.092c0-1.477,1.047-2.081,2.328-1.342l120.924,69.725a5.159,5.159,0,0,1,2.328,4.027v47.688a141.736,141.736,0,0,1-68.14,121.1,5.6,5.6,0,0,1-5.7.034L85.926,358.9C84.646,358.164,84.647,356.958,85.914,356.2Z" fill="#fff"/>
          <path id="Path_76" data-name="Path 76" d="M209.158,429.758a6.336,6.336,0,0,1-3.174-.855L85.59,359.483a2.273,2.273,0,0,1-1.3-1.91,2.3,2.3,0,0,1,1.274-1.952h0A141.807,141.807,0,0,0,153.9,234.779V187.092a2.079,2.079,0,0,1,3.336-1.925l120.924,69.726a5.8,5.8,0,0,1,2.664,4.608v47.688a143.236,143.236,0,0,1-68.463,121.673A6.168,6.168,0,0,1,209.158,429.758ZM86.262,356.77c-.4.24-.628.529-.625.789s.23.534.625.763l120.395,69.42a4.919,4.919,0,0,0,5.012-.025,141.889,141.889,0,0,0,67.816-120.527V259.5a4.471,4.471,0,0,0-1.992-3.446L156.568,186.331a.777.777,0,0,0-1.32.761v47.688A143.158,143.158,0,0,1,86.262,356.77Z" fill="#e0e0e0"/>
        </g>
        <g id="Group_31" data-name="Group 31">
          <path id="Path_77" data-name="Path 77" d="M228.465,245.9l32.4,18.682a6.229,6.229,0,0,1,2.91,4.826c0,1.738-1.3,2.4-2.91,1.471l-32.4-18.684a6.229,6.229,0,0,1-2.91-4.826C225.555,245.633,226.858,244.974,228.465,245.9Z" fill="#e0e0e0"/>
          <path id="Path_78" data-name="Path 78" d="M209.171,263.107c0,1.738-1.3,2.4-2.91,1.471L173.868,245.9a6.229,6.229,0,0,1-2.91-4.826c0-1.738,1.3-2.4,2.91-1.47l32.394,18.674A6.227,6.227,0,0,1,209.171,263.107Z" fill="#e0e0e0"/>
          <path id="Path_79" data-name="Path 79" d="M262.188,318.849c-.246,1.6-1.777,2.137-3.385,1.21l-86.978-50.152a4.966,4.966,0,0,1-2.449-4.572c.239-1.6,1.7-2.153,3.308-1.227l87.006,50.166A5.011,5.011,0,0,1,262.188,318.849Z" fill="#e0e0e0"/>
          <path id="Path_80" data-name="Path 80" d="M258.593,335.679c-.418,1.5-2.093,1.953-3.7,1.026L167.913,286.54a4.2,4.2,0,0,1-2.128-4.383c.418-1.5,2.027-1.968,3.635-1.042l86.992,50.166A4.261,4.261,0,0,1,258.593,335.679Z" fill="#e0e0e0"/>
          <path id="Path_81" data-name="Path 81" d="M253.187,351.448c-.577,1.4-2.372,1.783-3.98.856l-86.993-50.154a3.605,3.605,0,0,1-1.832-4.212c.575-1.41,2.309-1.815,3.915-.889l86.993,50.166C252.9,348.143,253.762,350.044,253.187,351.448Z" fill="#e0e0e0"/>
          <path id="Path_82" data-name="Path 82" d="M246.091,366.248c-.731,1.317-2.656,1.615-4.264.689L154.848,316.8a3.136,3.136,0,0,1-1.567-4.051c.726-1.321,2.6-1.654,4.2-.728l86.993,50.152C246.083,363.1,246.821,364.933,246.091,366.248Z" fill="#e0e0e0"/>
          <path id="Path_83" data-name="Path 83" d="M195.862,362.479c-.931,1.2-3.007,1.411-4.614.483l-48.779-28.124c-1.606-.926-2.132-2.638-1.2-3.842a3.617,3.617,0,0,1,4.573-.52l48.779,28.136C196.229,359.54,196.792,361.277,195.862,362.479Z" fill="#e0e0e0"/>
        </g>
        <g id="Group_36" data-name="Group 36">
          <path id="Path_84" data-name="Path 84" d="M178.051,388.5s-25.576,16.842-56.232,18.014c6.248,3.6,20.346,5.1,31.241,3.6,0,0-1.524,6.328-12.5,14.412,0,0,17.868,4.811,49.985-28.823Z" fill="#27debf"/>
          <g id="Group_35" data-name="Group 35">
            <g id="Group_32" data-name="Group 32">
              <path id="Path_85" data-name="Path 85" d="M205.068,394.832c-5.472,5.556-16.51,6.021-24.052,1.673s-8.73-11.858-3.26-17.41,15.5-7.01,23.045-2.666S210.54,389.276,205.068,394.832Z" fill="#27debf"/>
              <path id="Path_86" data-name="Path 86" d="M205.068,394.832c-5.472,5.556-16.51,6.021-24.052,1.673s-8.73-11.858-3.26-17.41,15.5-7.01,23.045-2.666S210.54,389.276,205.068,394.832Z" opacity="0.2"/>
            </g>
            <path id="Path_87" data-name="Path 87" d="M205.068,393.15c-5.472,5.556-16.51,6.021-24.052,1.673s-8.73-11.857-3.26-17.41,15.5-7.01,23.045-2.666S210.54,387.594,205.068,393.15Z" fill="#27debf"/>
            <g id="Group_33" data-name="Group 33">
              <path id="Path_88" data-name="Path 88" d="M192.388,393.717a18.976,18.976,0,0,1-9.357-2.383c-2.669-1.538-4.3-3.557-4.589-5.682a6.621,6.621,0,0,1,2.188-5.414,14.825,14.825,0,0,1,10.435-4,15.47,15.47,0,0,1,7.721,2c2.921,1.682,4.877,4.25,5.233,6.87a6.067,6.067,0,0,1-1.827,5.219C200.07,392.482,196.5,393.717,192.388,393.717Z" fill="#27debf"/>
              <path id="Path_89" data-name="Path 89" d="M192.388,393.717a18.976,18.976,0,0,1-9.357-2.383c-2.669-1.538-4.3-3.557-4.589-5.682a6.621,6.621,0,0,1,2.188-5.414,14.825,14.825,0,0,1,10.435-4,15.47,15.47,0,0,1,7.721,2c2.921,1.682,4.877,4.25,5.233,6.87a6.067,6.067,0,0,1-1.827,5.219C200.07,392.482,196.5,393.717,192.388,393.717Z" opacity="0.3"/>
            </g>
            <g id="Group_34" data-name="Group 34">
              <path id="Path_90" data-name="Path 90" d="M198.787,379.929a15.469,15.469,0,0,0-7.721-2,14.825,14.825,0,0,0-10.435,4,7.475,7.475,0,0,0-2.157,3.867c.343,2.071,1.95,4.033,4.558,5.536a18.976,18.976,0,0,0,9.357,2.383c4.109,0,7.682-1.235,9.8-3.391a6.251,6.251,0,0,0,1.82-3.557C203.644,384.159,201.7,381.6,198.787,379.929Z" fill="#27debf"/>
              <path id="Path_91" data-name="Path 91" d="M198.787,379.929a15.469,15.469,0,0,0-7.721-2,14.825,14.825,0,0,0-10.435,4,7.475,7.475,0,0,0-2.157,3.867c.343,2.071,1.95,4.033,4.558,5.536a18.976,18.976,0,0,0,9.357,2.383c4.109,0,7.682-1.235,9.8-3.391a6.251,6.251,0,0,0,1.82-3.557C203.644,384.159,201.7,381.6,198.787,379.929Z" opacity="0.2"/>
            </g>
          </g>
        </g>
      </g>
    </g>
    <g id="Character">
      <g id="Group_55" data-name="Group 55">
        <g id="Group_45" data-name="Group 45">
          <ellipse id="Ellipse_2" data-name="Ellipse 2" cx="10.105" cy="10.117" rx="10.105" ry="10.117" transform="matrix(0.247, -0.969, 0.969, 0.246, 233.202, 356.819)" fill="#263238"/>
          <g id="Group_44" data-name="Group 44">
            <g id="Group_43" data-name="Group 43">
              <g id="Group_42" data-name="Group 42">
                <rect id="Rectangle_1" data-name="Rectangle 1" width="7.127" height="12.185" transform="translate(262.603 520.493)" fill="#ffa8a7"/>
                <path id="Path_92" data-name="Path 92" d="M245.02,519.842l-7.123.245-.357-12.895,7.479-.244Z" fill="#ffa8a7"/>
                <path id="Path_93" data-name="Path 93" d="M269.261,416.061c0,6.8.88,55.829.88,55.829.165,1.956,2,5.562,1.6,13.074-.54,10.2-1.712,41.62-1.712,41.62a9.387,9.387,0,0,1-7.934.157s-6.289-41.742-7.566-51.855c-1.114-8.825-3.006-32.8-3.006-32.8L247.665,470.9a40.443,40.443,0,0,1,.883,11.313c-.333,4.677-3.077,33.638-3.077,33.638a9.738,9.738,0,0,1-8.229.63s-3.6-41.289-3.684-45.58c-.094-4.892,2.37-54.836,2.37-54.836Z" fill="#37474f"/>
                <path id="Path_94" data-name="Path 94" d="M266.218,377.447s2.647,1.61,2.647,8.067v13.945l.2,26.333c-10.229,5.386-23.146,5.7-34.059-2.261,0,0,.522-33.848.522-39.392s3.094-12.752,11.611-13.246l10.994,2.551Z" fill="#fff"/>
                <g id="Group_38" data-name="Group 38">
                  <path id="Path_95" data-name="Path 95" d="M235.591,406.549c3.308-13.866,4.391-27.729,4.956-31.306L231.4,389.849s-2.03,11.345-3.067,17.352a115.793,115.793,0,0,1-5.706,18.935,6.535,6.535,0,0,1-2.559,2.075c-1.936.922-2.794,2-4.317,3.265-1.191.991-2.129,1.165-2.03,1.534a1.763,1.763,0,0,0,2.153,1.051,12.382,12.382,0,0,0,2.721-1.1,16.378,16.378,0,0,1-3.137,4.2c-2.886,2.811-3.215,4.7,1.891,5.329,3.2.393,5.98-1.289,9.2-8.063a57.669,57.669,0,0,0,3.155-7.657C231.719,419.944,234.589,410.741,235.591,406.549Z" fill="#ffa8a7"/>
                  <path id="Path_96" data-name="Path 96" d="M242.934,370.9c-3.085-.493-5.207-.226-7.318,2.047-1.324,1.426-2.7,3.782-5.008,17.992-2,12.349-7.71,32.744-7.71,32.744a8.66,8.66,0,0,0,7.78,2.8l10.053-36.938Z" fill="#37474f"/>
                </g>
                <path id="Path_97" data-name="Path 97" d="M247.539,371.5a15.326,15.326,0,0,0-4.9,7.573c-1.043,4.517-1.211,54.957-1.211,54.957s-5.36-.989-7.873-2.957V384.976C233.556,378.376,235.044,368.327,247.539,371.5Z" fill="#37474f"/>
                <path id="Path_98" data-name="Path 98" d="M258.534,374.055c0-.005-5.975,6.182-6.1,21.285s-.378,41.588-.378,41.588,10.507,2.133,18-2.339c0,0-.848-37.832-.991-43.5-.163-6.493,1.738-12.011-1.919-13.842A55.826,55.826,0,0,0,258.534,374.055Z" fill="#37474f"/>
                <g id="Group_41" data-name="Group 41">
                  <g id="Group_39" data-name="Group 39">
                    <path id="Path_99" data-name="Path 99" d="M262.99,356.7s-1.639,7.692-2.3,8.957a3.493,3.493,0,0,1-2.016,1.623l.114-5.411Z" fill="#263238"/>
                    <path id="Path_100" data-name="Path 100" d="M260.933,345.68a3.8,3.8,0,0,1,3.141,1.1c1.35,1.379.6,5.692-1.085,9.918l-3.088.353Z" fill="#263238"/>
                    <path id="Path_101" data-name="Path 101" d="M258.976,357.057c.62.369,1.5-.819,2.266-1.616s3.257-1.889,4.5.728c1.268,2.667-1.1,6.191-3.061,6.807-3.382,1.061-3.89-1.106-3.89-1.106l-.258,12.185-11.724,7.719a16.915,16.915,0,0,1,.719-8.041l.009-3.709a21.358,21.358,0,0,1-4.561.234c-2.487-.384-4.051-2.344-4.807-5.033-1.211-4.32-1.672-7.807-.644-16.3,1.128-9.311,11.971-9.408,17.826-5.728S258.976,357.057,258.976,357.057Z" fill="#ffa8a7"/>
                    <path id="Path_102" data-name="Path 102" d="M246.81,381.773l11.763-9.563.032-1.534s2.733.544,3.085,4.36l-7.14,10.859-3.02-5.658Z" fill="#f0f0f0"/>
                    <path id="Path_103" data-name="Path 103" d="M247.539,370.023a5.529,5.529,0,0,0-3.659,2.187c-1.117,1.849-3.149,9.563-3.149,9.563l3.8-2.931,2.277,2.931a23.9,23.9,0,0,1,.719-8.041Z" fill="#f0f0f0"/>
                    <path id="Path_104" data-name="Path 104" d="M258.976,358.1c.312.007,1.495-1.956,2.266-2.657,1.069-.971-.309-9.761-.309-9.761a4.16,4.16,0,0,0-1.031-4.446c-1.464-1.608-3.909-1.787-8.084-2.442-2.191-.344-5.512-.956-7.7-1.363-2.612-.485-4.774-1-6.619.6a4.623,4.623,0,0,0-1.281,5.182,4.819,4.819,0,0,0,2.622,2.4s1.138,1.009,5.1,1.491a58.6,58.6,0,0,0,10.978-.208c1.149-.157,1.394.956,2.014,3.994C257.477,353.557,257.929,358.077,258.976,358.1Z" fill="#263238"/>
                    <path id="Path_105" data-name="Path 105" d="M260.926,346.363l3.745-2.007a2.066,2.066,0,0,0-2.835-.937A2.23,2.23,0,0,0,260.926,346.363Z" fill="#263238"/>
                    <path id="Path_106" data-name="Path 106" d="M247.539,370.023s5.553-1.117,7.494-2.148a6.38,6.38,0,0,0,2.683-2.651,8.725,8.725,0,0,1-1.524,3.128c-1.419,1.812-8.652,3.147-8.652,3.147Z" fill="#f28f8f"/>
                  </g>
                  <g id="Group_40" data-name="Group 40">
                    <path id="Path_107" data-name="Path 107" d="M248.873,355.67a1.113,1.113,0,1,0,1.112-1.157A1.13,1.13,0,0,0,248.873,355.67Z" fill="#263238"/>
                    <path id="Path_108" data-name="Path 108" d="M250.054,351.475l2.38,1.312a1.425,1.425,0,0,0-.555-1.893A1.327,1.327,0,0,0,250.054,351.475Z" fill="#263238"/>
                    <path id="Path_109" data-name="Path 109" d="M248.041,363.347l-2.54.952a1.333,1.333,0,0,0,1.726.84A1.417,1.417,0,0,0,248.041,363.347Z" fill="#f28f8f"/>
                    <path id="Path_110" data-name="Path 110" d="M238.95,352.4l2.171-1.67a1.316,1.316,0,0,0-1.887-.289A1.436,1.436,0,0,0,238.95,352.4Z" fill="#263238"/>
                    <path id="Path_111" data-name="Path 111" d="M239.618,355.355a1.114,1.114,0,1,0,1.113-1.158A1.129,1.129,0,0,0,239.618,355.355Z" fill="#263238"/>
                    <path id="Path_112" data-name="Path 112" d="M245.287,354.3l-.365,6.683-3.494-1.19Z" fill="#f28f8f"/>
                  </g>
                </g>
                <path id="Path_113" data-name="Path 113" d="M262.6,529.163v-1.018c-.681.3-2.266,6.333-5.094,8.91-2.247,2.047-5.313,4.413-6.094,6.7-.811,2.375,4.27,3.685,6.371,3.313,2.44-.431,6.67-2.146,7.732-3.737s1.559-3.939,2.422-5.1,2.851-2.467,3.317-3.816a8.6,8.6,0,0,0-.407-3.737c-.331-1.258-.69-2.642-1.12-2.524,0,.153,0,.776,0,.776a5.646,5.646,0,0,1-3.563,1.2C265.124,530.165,262.594,529.958,262.6,529.163Z" fill="#263238"/>
                <path id="Path_114" data-name="Path 114" d="M237.822,517.892c-.37.012-.672.534-1.488,1.416a15.579,15.579,0,0,1-4.192,3.012c-2.668,1.334-7.857,3.387-10.2,4.443-1.466.659-1.4,2.43.118,3.437s5.178,1.733,9.573.75c2.4-.534,5.512-2.744,7.486-2.624s5.664.091,7.121-.911.874-3.144.462-4.984c-.45-2.007-1.012-5.139-1.677-5v.693c-.856,1.3-5.278,1.823-7.16.869Z" fill="#263238"/>
              </g>
            </g>
          </g>
          <path id="Path_115" data-name="Path 115" d="M251.528,442.088A26.4,26.4,0,0,1,241.6,436.4s1.914,3.582,7.609,6.913L248,468.433Z" fill="#263238"/>
        </g>
        <path id="Path_116" data-name="Path 116" d="M250.25,380.652c-.4-.965-1.8-1.411-3.113-1.434a1.973,1.973,0,0,0-2.015,2.065,8.623,8.623,0,0,0,.68,3.21,4.95,4.95,0,0,1,2.972.264A9.275,9.275,0,0,0,250.25,380.652Z" fill="#263238"/>
        <path id="Path_117" data-name="Path 117" d="M245.8,384.493S243.323,404.8,243.391,406s2.593,8.229,3.887,8.229c1.422,0,3.821-6.319,3.887-7.315s-2.391-22.156-2.391-22.156A2.555,2.555,0,0,0,245.8,384.493Z" fill="#263238"/>
        <path id="Path_118" data-name="Path 118" d="M262.4,494.364l-5.222-3.01a2.091,2.091,0,0,1-.948-1.64V460.092a2.094,2.094,0,0,1,.948-1.64L292.652,438a2.1,2.1,0,0,1,1.9,0l5.222,3.011a2.094,2.094,0,0,1,.948,1.64v29.62a2.1,2.1,0,0,1-.948,1.642L264.3,494.364A2.1,2.1,0,0,1,262.4,494.364Z" fill="#27debf"/>
        <path id="Path_119" data-name="Path 119" d="M256.231,460.092a1.941,1.941,0,0,1,.277-.933l7.73,4.457v30.776a2.106,2.106,0,0,1-1.837-.027l-5.222-3.012a2.088,2.088,0,0,1-.948-1.639Z" fill="#f28f8f"/>
        <g id="Group_46" data-name="Group 46">
          <path id="Path_120" data-name="Path 120" d="M256.231,460.092a1.941,1.941,0,0,1,.277-.933l7.73,4.457v30.776a2.106,2.106,0,0,1-1.837-.027l-5.222-3.012a2.088,2.088,0,0,1-.948-1.639Z" fill="#27debf"/>
          <path id="Path_121" data-name="Path 121" d="M256.231,460.092a1.941,1.941,0,0,1,.277-.933l7.73,4.457v30.776a2.106,2.106,0,0,1-1.837-.027l-5.222-3.012a2.088,2.088,0,0,1-.948-1.639Z" opacity="0.2"/>
        </g>
        <path id="Path_122" data-name="Path 122" d="M264.3,462.556,299.771,442.1c.523-.3.948-.058.948.546v29.62a2.1,2.1,0,0,1-.948,1.642L264.3,494.364c-.524.3-.949.058-.949-.546V464.2A2.1,2.1,0,0,1,264.3,462.556Z" fill="#27debf"/>
        <g id="Group_47" data-name="Group 47">
          <path id="Path_123" data-name="Path 123" d="M261.184,460.761a2.1,2.1,0,0,0-.949,1.642v30.714l-.89-.514V461.888a2.092,2.092,0,0,1,.949-1.64l36.422-21,.888.513Z" fill="#27debf"/>
          <path id="Path_124" data-name="Path 124" d="M261.184,460.761a2.1,2.1,0,0,0-.949,1.642v30.714l-.89-.514V461.888a2.092,2.092,0,0,1,.949-1.64l36.422-21,.888.513Z" opacity="0.3"/>
        </g>
        <g id="Group_48" data-name="Group 48">
          <path id="Path_125" data-name="Path 125" d="M260.295,460.248l36.363-20.967.918.5-36.391,20.983a1.948,1.948,0,0,0-.671.707l-.89-.513h0A1.948,1.948,0,0,1,260.295,460.248Z" fill="#27debf"/>
          <path id="Path_126" data-name="Path 126" d="M260.295,460.248l36.363-20.967.918.5-36.391,20.983a1.948,1.948,0,0,0-.671.707l-.89-.513h0A1.948,1.948,0,0,1,260.295,460.248Z" opacity="0.2"/>
        </g>
        <g id="Group_50" data-name="Group 50">
          <g id="Group_49" data-name="Group 49">
            <path id="Path_127" data-name="Path 127" d="M265.807,455.529l.626-.361a1.046,1.046,0,0,1,.949,0l2.406,1.387.4-.122v.514h0a.331.331,0,0,1-.2.272l-.831.479a1.046,1.046,0,0,1-.949,0l-2.61-1.5a.333.333,0,0,1-.2-.274h0v-.513Z" fill="#27debf"/>
            <path id="Path_128" data-name="Path 128" d="M265.807,455.529l.626-.361a1.046,1.046,0,0,1,.949,0l2.406,1.387.4-.122v.514h0a.331.331,0,0,1-.2.272l-.831.479a1.046,1.046,0,0,1-.949,0l-2.61-1.5a.333.333,0,0,1-.2-.274h0v-.513Z" opacity="0.2"/>
          </g>
          <path id="Path_129" data-name="Path 129" d="M265.6,455.133l.831-.479a1.055,1.055,0,0,1,.949,0l2.61,1.506a.288.288,0,0,1,0,.546l-.831.479a1.046,1.046,0,0,1-.949,0l-2.61-1.5A.289.289,0,0,1,265.6,455.133Z" fill="#27debf"/>
        </g>
        <g id="Group_52" data-name="Group 52">
          <g id="Group_51" data-name="Group 51">
            <path id="Path_130" data-name="Path 130" d="M285.969,444.79l.626-.361a1.046,1.046,0,0,1,.949,0l2.406,1.387.4-.122v.514h0a.331.331,0,0,1-.2.273l-.831.479a1.046,1.046,0,0,1-.949,0l-2.61-1.5a.333.333,0,0,1-.2-.274h0v-.513Z" fill="#27debf"/>
            <path id="Path_131" data-name="Path 131" d="M285.969,444.79l.626-.361a1.046,1.046,0,0,1,.949,0l2.406,1.387.4-.122v.514h0a.331.331,0,0,1-.2.273l-.831.479a1.046,1.046,0,0,1-.949,0l-2.61-1.5a.333.333,0,0,1-.2-.274h0v-.513Z" opacity="0.2"/>
          </g>
          <path id="Path_132" data-name="Path 132" d="M285.765,444.394l.831-.479a1.055,1.055,0,0,1,.949,0l2.61,1.506a.288.288,0,0,1,0,.546l-.831.479a1.046,1.046,0,0,1-.949,0l-2.61-1.5A.289.289,0,0,1,285.765,444.394Z" fill="#27debf"/>
        </g>
        <g id="Group_53" data-name="Group 53">
          <path id="Path_133" data-name="Path 133" d="M280.255,443.095v3.078l1.778,1.026v-4.692c0-.243-.169-.34-.379-.219Z" fill="#27debf"/>
          <path id="Path_134" data-name="Path 134" d="M280.255,443.095v3.078l1.778,1.026v-4.692c0-.243-.169-.34-.379-.219Z" opacity="0.3"/>
        </g>
        <path id="Path_135" data-name="Path 135" d="M270.925,446.358v5.721l1.321.764.888-.514v-4.693a.843.843,0,0,1,.379-.656l6.741-3.885,1.4-.807c.21-.121.379-.024.379.219V447.2l.891-.514v-5.717a.474.474,0,0,0-.007-.075.834.834,0,0,0-.375-.581l-.562-.326a.838.838,0,0,0-.758,0L271.3,445.7A.839.839,0,0,0,270.925,446.358Z" fill="#27debf"/>
        <g id="Group_54" data-name="Group 54">
          <path id="Path_136" data-name="Path 136" d="M272.247,447.122v5.721l.888-.514v-4.693a.843.843,0,0,1,.379-.656l6.741-3.885,1.4-.807c.21-.121.379-.024.379.219V447.2l.891-.514v-5.717a.474.474,0,0,0-.007-.075c-.032-.185-.188-.251-.375-.144l-9.917,5.717A.847.847,0,0,0,272.247,447.122Z" fill="#27debf"/>
          <path id="Path_137" data-name="Path 137" d="M272.247,447.122v5.721l.888-.514v-4.693a.843.843,0,0,1,.379-.656l6.741-3.885,1.4-.807c.21-.121.379-.024.379.219V447.2l.891-.514v-5.717a.474.474,0,0,0-.007-.075c-.032-.185-.188-.251-.375-.144l-9.917,5.717A.847.847,0,0,0,272.247,447.122Z" opacity="0.2"/>
        </g>
        <path id="Path_138" data-name="Path 138" d="M279.924,432.93s-.044,1.767,0,2.528,1.05,4.755,1.031,7.054c.18.831-.972,2.489-2.886,3.384-.815.383-2.235,1.7-2.885,1.768a5.121,5.121,0,0,1-1.671-.685l.812-.467s1.11-1.62-.108-2.49l-2.417,1.393a6.035,6.035,0,0,1,0-2.207c.227-1.21.251-2.76.445-4.023a8.233,8.233,0,0,1,1.269-2.787l-.4-3.987Z" fill="#ffa8a7"/>
        <path id="Path_139" data-name="Path 139" d="M264.913,376.236a27.97,27.97,0,0,1,6.012,2.983c1.5,1.2,10.2,26.11,10.535,28.353s-.948,25.841-.948,25.841a8.1,8.1,0,0,1-7.9.507l-1.394-23.66-7.494-19.476S260.906,382.639,264.913,376.236Z" fill="#37474f"/>
      </g>
    </g>
  </g>
</svg>
