<svg xmlns="http://www.w3.org/2000/svg" width="196" height="39" viewBox="0 0 196 39">
  <g id="Vector_Smart_Object" data-name="Vector Smart Object" transform="translate(-49.033 -64.717)">
    <g id="Group_56" data-name="Group 56">
      <path id="Path_140" data-name="Path 140" d="M99.378,91.952A8.362,8.362,0,0,1,96.4,90.48l.954-1.809A8.154,8.154,0,0,0,100,90.028a10.705,10.705,0,0,0,3.315.522,6.508,6.508,0,0,0,3.354-.684,2.066,2.066,0,0,0,1.109-1.821,1.708,1.708,0,0,0-.606-1.357,4.173,4.173,0,0,0-1.5-.8q-.89-.279-2.515-.626a28.072,28.072,0,0,1-3.289-.882,5.465,5.465,0,0,1-2.141-1.357,3.394,3.394,0,0,1-.89-2.471A3.876,3.876,0,0,1,97.6,78.21a5.154,5.154,0,0,1,2.308-1.67,10.3,10.3,0,0,1,3.843-.626,13.475,13.475,0,0,1,3.148.371,8.854,8.854,0,0,1,2.657,1.067l-.851,1.855a9.906,9.906,0,0,0-2.425-.986,10.011,10.011,0,0,0-2.528-.336,6.057,6.057,0,0,0-3.288.719,2.148,2.148,0,0,0-1.1,1.855,1.693,1.693,0,0,0,.619,1.357,4.424,4.424,0,0,0,1.535.812q.916.29,2.489.615a27.523,27.523,0,0,1,3.276.881,5.555,5.555,0,0,1,2.128,1.345,3.321,3.321,0,0,1,.89,2.436,3.85,3.85,0,0,1-.774,2.331,5.118,5.118,0,0,1-2.347,1.67,10.675,10.675,0,0,1-3.869.615A13.615,13.615,0,0,1,99.378,91.952Z" fill="#4a0c8c"/>
      <path id="Path_141" data-name="Path 141" d="M134.9,81.272a5.066,5.066,0,0,1,1.509,3.989v7.074h-2.476V85.516a3.627,3.627,0,0,0-.916-2.69,3.57,3.57,0,0,0-2.618-.9,4.163,4.163,0,0,0-2.993,1.055A3.981,3.981,0,0,0,126.3,86v6.332h-2.476V85.516a3.627,3.627,0,0,0-.916-2.69,3.569,3.569,0,0,0-2.618-.9,4.163,4.163,0,0,0-2.993,1.055A3.981,3.981,0,0,0,116.183,86v6.332h-2.476V80.043h2.373v1.832a4.721,4.721,0,0,1,1.961-1.45,7.2,7.2,0,0,1,2.76-.5,6.626,6.626,0,0,1,2.838.58,4.294,4.294,0,0,1,1.909,1.693,5.125,5.125,0,0,1,2.154-1.67,7.684,7.684,0,0,1,3.108-.6A5.92,5.92,0,0,1,134.9,81.272Z" fill="#4a0c8c"/>
      <path id="Path_142" data-name="Path 142" d="M150.3,81.179a4.576,4.576,0,0,1,1.509,3.734v7.422h-2.348V90.712a3.84,3.84,0,0,1-1.767,1.31,7.4,7.4,0,0,1-2.721.453,6.14,6.14,0,0,1-3.676-1,3.211,3.211,0,0,1-.065-5.23,7.025,7.025,0,0,1,4.179-.986h3.921V84.82a2.692,2.692,0,0,0-.928-2.2,4.213,4.213,0,0,0-2.734-.765,7.993,7.993,0,0,0-2.373.359,6.363,6.363,0,0,0-1.961.963L140.3,81.5a7.814,7.814,0,0,1,2.528-1.171,11.678,11.678,0,0,1,3.122-.406A6.642,6.642,0,0,1,150.3,81.179Zm-2.464,9.011a3.362,3.362,0,0,0,1.5-1.612V86.861h-3.818q-3.148,0-3.147,1.9a1.667,1.667,0,0,0,.8,1.461,3.96,3.96,0,0,0,2.218.534A5,5,0,0,0,147.834,90.19Z" fill="#4a0c8c"/>
      <path id="Path_143" data-name="Path 143" d="M160.68,80.483a7.6,7.6,0,0,1,3.07-.557v2.157a5.44,5.44,0,0,0-.568-.023,4.429,4.429,0,0,0-3.159,1.078,4.011,4.011,0,0,0-1.148,3.073v6.124H156.4V80.043h2.373v2.064A4.075,4.075,0,0,1,160.68,80.483Z" fill="#4a0c8c"/>
      <path id="Path_144" data-name="Path 144" d="M175.049,91.617a3.849,3.849,0,0,1-1.341.638,6.188,6.188,0,0,1-1.651.22,4.687,4.687,0,0,1-3.2-1,3.594,3.594,0,0,1-1.135-2.853V81.875H165.4V80.043h2.322v-2.69H170.2v2.69h3.921v1.832H170.2v6.657a2.023,2.023,0,0,0,.555,1.531,2.195,2.195,0,0,0,1.586.534,3.2,3.2,0,0,0,1.934-.58Z" fill="#4a0c8c"/>
      <path id="Path_145" data-name="Path 145" d="M182.013,79.115v4.291h8.358v3.015h-8.358v5.914h-4.178V76.1H191.48v3.015Z" fill="#27debf"/>
      <path id="Path_146" data-name="Path 146" d="M196.343,91.7a6.574,6.574,0,0,1-2.722-2.285,6.1,6.1,0,0,1,0-6.633,6.578,6.578,0,0,1,2.722-2.285,9.776,9.776,0,0,1,7.855,0,6.6,6.6,0,0,1,2.709,2.285,6.1,6.1,0,0,1,0,6.633A6.594,6.594,0,0,1,204.2,91.7a9.776,9.776,0,0,1-7.855,0Zm6.475-3.085a3.686,3.686,0,0,0,0-5.033,3.551,3.551,0,0,0-2.541-.939,3.594,3.594,0,0,0-2.554.939,3.651,3.651,0,0,0,0,5.033,3.592,3.592,0,0,0,2.554.939A3.548,3.548,0,0,0,202.818,88.613Z" fill="#27debf"/>
      <path id="Path_147" data-name="Path 147" d="M216.36,80.135a7.945,7.945,0,0,1,2.824-.464v3.34q-.671-.046-.9-.046a3.938,3.938,0,0,0-2.709.87,3.307,3.307,0,0,0-.98,2.61v5.891h-4.024V79.857h3.843V81.5A4.435,4.435,0,0,1,216.36,80.135Z" fill="#27debf"/>
      <path id="Path_148" data-name="Path 148" d="M243.5,81.052a5.288,5.288,0,0,1,1.534,4.14v7.144h-4.024V85.748a3.144,3.144,0,0,0-.684-2.215,2.537,2.537,0,0,0-1.947-.731,3.036,3.036,0,0,0-2.244.824,3.313,3.313,0,0,0-.826,2.447v6.263h-4.024V85.748q0-2.944-2.631-2.945a3,3,0,0,0-2.218.824,3.313,3.313,0,0,0-.825,2.447v6.263h-4.025V79.857h3.843V81.3a5.116,5.116,0,0,1,1.9-1.206,7.006,7.006,0,0,1,2.464-.418,6.529,6.529,0,0,1,2.657.522,4.591,4.591,0,0,1,1.909,1.519,5.65,5.65,0,0,1,2.153-1.507,7.455,7.455,0,0,1,2.851-.534A5.965,5.965,0,0,1,243.5,81.052Z" fill="#27debf"/>
    </g>
    <g id="Group_58" data-name="Group 58">
      <rect id="Rectangle_2" data-name="Rectangle 2" width="29.231" height="33.348" rx="3.576" transform="translate(49.033 64.717)" fill="#4a0c8c"/>
      <rect id="Rectangle_3" data-name="Rectangle 3" width="29.231" height="33.348" rx="3.576" transform="translate(55.319 70.37)" fill="#27debf"/>
      <g id="Group_57" data-name="Group 57">
        <rect id="Rectangle_4" data-name="Rectangle 4" width="23.259" height="1.696" rx="0.848" transform="translate(58.305 81.391)" fill="#fff"/>
        <rect id="Rectangle_5" data-name="Rectangle 5" width="10.451" height="1.696" rx="0.848" transform="translate(58.305 85.56)" fill="#fff"/>
        <rect id="Rectangle_6" data-name="Rectangle 6" width="10.451" height="1.696" rx="0.848" transform="translate(71.113 85.56)" fill="#fff"/>
        <rect id="Rectangle_7" data-name="Rectangle 7" width="23.259" height="1.696" rx="0.848" transform="translate(58.305 90.082)" fill="#fff"/>
        <rect id="Rectangle_8" data-name="Rectangle 8" width="23.259" height="1.696" rx="0.848" transform="translate(58.305 98.418)" fill="#fff"/>
        <rect id="Rectangle_9" data-name="Rectangle 9" width="10.451" height="1.696" rx="0.848" transform="translate(58.305 94.25)" fill="#fff"/>
        <rect id="Rectangle_10" data-name="Rectangle 10" width="10.451" height="1.696" rx="0.848" transform="translate(71.113 94.25)" fill="#fff"/>
      </g>
      <ellipse id="Ellipse_3" data-name="Ellipse 3" cx="3.182" cy="2.861" rx="3.182" ry="2.861" transform="translate(67.027 73.69)" fill="#fff"/>
    </g>
  </g>
</svg>
