<svg xmlns="http://www.w3.org/2000/svg" width="90.89" height="153.187" viewBox="0 0 90.89 153.187">
  <g id="shape" transform="translate(-39.111 -163.999)">
    <g id="Vector_Smart_Object" data-name="Vector Smart Object" transform="matrix(0, 1, -1, 0, 171.935, -85.448)">
      <g id="Group_104" data-name="Group 104">
        <g id="Group_67" data-name="Group 67">
          <g id="Group_59" data-name="Group 59">
            <path id="Path_149" data-name="Path 149" d="M255.837,54.7a6.381,6.381,0,1,1,6.39-6.38A6.393,6.393,0,0,1,255.837,54.7Zm0-11.077a4.7,4.7,0,1,0,4.7,4.7A4.705,4.705,0,0,0,255.837,43.62Z" fill="#e5e5e5"/>
          </g>
          <g id="Group_60" data-name="Group 60">
            <path id="Path_150" data-name="Path 150" d="M275.895,54.7a6.381,6.381,0,1,1,6.39-6.38A6.392,6.392,0,0,1,275.895,54.7Zm0-11.077a4.7,4.7,0,1,0,4.7,4.7A4.7,4.7,0,0,0,275.895,43.62Z" fill="#e5e5e5"/>
          </g>
          <g id="Group_61" data-name="Group 61">
            <path id="Path_151" data-name="Path 151" d="M295.954,54.7a6.381,6.381,0,1,1,6.388-6.38A6.393,6.393,0,0,1,295.954,54.7Zm0-11.077a4.7,4.7,0,1,0,4.7,4.7A4.705,4.705,0,0,0,295.954,43.62Z" fill="#e5e5e5"/>
          </g>
          <g id="Group_62" data-name="Group 62">
            <path id="Path_152" data-name="Path 152" d="M316.011,54.7a6.381,6.381,0,1,1,6.39-6.38A6.392,6.392,0,0,1,316.011,54.7Zm0-11.077a4.7,4.7,0,1,0,4.7,4.7A4.705,4.705,0,0,0,316.011,43.62Z" fill="#e5e5e5"/>
          </g>
          <g id="Group_63" data-name="Group 63">
            <path id="Path_153" data-name="Path 153" d="M336.071,54.7a6.381,6.381,0,1,1,6.388-6.38A6.394,6.394,0,0,1,336.071,54.7Zm0-11.077a4.7,4.7,0,1,0,4.7,4.7A4.705,4.705,0,0,0,336.071,43.62Z" fill="#e5e5e5"/>
          </g>
          <g id="Group_64" data-name="Group 64">
            <path id="Path_154" data-name="Path 154" d="M356.128,54.7a6.381,6.381,0,1,1,6.388-6.38A6.393,6.393,0,0,1,356.128,54.7Zm0-11.077a4.7,4.7,0,1,0,4.7,4.7A4.705,4.705,0,0,0,356.128,43.62Z" fill="#e5e5e5"/>
          </g>
          <g id="Group_65" data-name="Group 65">
            <path id="Path_155" data-name="Path 155" d="M376.186,54.7a6.381,6.381,0,1,1,6.39-6.38A6.392,6.392,0,0,1,376.186,54.7Zm0-11.077a4.7,4.7,0,1,0,4.7,4.7A4.7,4.7,0,0,0,376.186,43.62Z" fill="#e5e5e5"/>
          </g>
          <g id="Group_66" data-name="Group 66">
            <path id="Path_156" data-name="Path 156" d="M396.243,54.7a6.381,6.381,0,1,1,6.39-6.38A6.392,6.392,0,0,1,396.243,54.7Zm0-11.077a4.7,4.7,0,1,0,4.7,4.7A4.7,4.7,0,0,0,396.243,43.62Z" fill="#e5e5e5"/>
          </g>
        </g>
        <g id="Group_76" data-name="Group 76">
          <g id="Group_68" data-name="Group 68">
            <path id="Path_157" data-name="Path 157" d="M255.837,74.229a6.381,6.381,0,1,1,6.39-6.38A6.393,6.393,0,0,1,255.837,74.229Zm0-11.077a4.7,4.7,0,1,0,4.7,4.7A4.7,4.7,0,0,0,255.837,63.153Z" fill="#e5e5e5"/>
          </g>
          <g id="Group_69" data-name="Group 69">
            <path id="Path_158" data-name="Path 158" d="M275.895,74.229a6.381,6.381,0,1,1,6.39-6.38A6.392,6.392,0,0,1,275.895,74.229Zm0-11.077a4.7,4.7,0,1,0,4.7,4.7A4.7,4.7,0,0,0,275.895,63.153Z" fill="#e5e5e5"/>
          </g>
          <g id="Group_70" data-name="Group 70">
            <path id="Path_159" data-name="Path 159" d="M295.954,74.229a6.381,6.381,0,1,1,6.388-6.38A6.393,6.393,0,0,1,295.954,74.229Zm0-11.077a4.7,4.7,0,1,0,4.7,4.7A4.7,4.7,0,0,0,295.954,63.153Z" fill="#e5e5e5"/>
          </g>
          <g id="Group_71" data-name="Group 71">
            <path id="Path_160" data-name="Path 160" d="M316.011,74.229a6.381,6.381,0,1,1,6.39-6.38A6.392,6.392,0,0,1,316.011,74.229Zm0-11.077a4.7,4.7,0,1,0,4.7,4.7A4.7,4.7,0,0,0,316.011,63.153Z" fill="#e5e5e5"/>
          </g>
          <g id="Group_72" data-name="Group 72">
            <path id="Path_161" data-name="Path 161" d="M336.071,74.229a6.381,6.381,0,1,1,6.388-6.38A6.394,6.394,0,0,1,336.071,74.229Zm0-11.077a4.7,4.7,0,1,0,4.7,4.7A4.7,4.7,0,0,0,336.071,63.153Z" fill="#e5e5e5"/>
          </g>
          <g id="Group_73" data-name="Group 73">
            <path id="Path_162" data-name="Path 162" d="M356.128,74.229a6.381,6.381,0,1,1,6.388-6.38A6.393,6.393,0,0,1,356.128,74.229Zm0-11.077a4.7,4.7,0,1,0,4.7,4.7A4.7,4.7,0,0,0,356.128,63.153Z" fill="#e5e5e5"/>
          </g>
          <g id="Group_74" data-name="Group 74">
            <path id="Path_163" data-name="Path 163" d="M376.186,74.229a6.381,6.381,0,1,1,6.39-6.38A6.392,6.392,0,0,1,376.186,74.229Zm0-11.077a4.7,4.7,0,1,0,4.7,4.7A4.7,4.7,0,0,0,376.186,63.153Z" fill="#e5e5e5"/>
          </g>
          <g id="Group_75" data-name="Group 75">
            <path id="Path_164" data-name="Path 164" d="M396.243,74.229a6.381,6.381,0,1,1,6.39-6.38A6.392,6.392,0,0,1,396.243,74.229Zm0-11.077a4.7,4.7,0,1,0,4.7,4.7A4.7,4.7,0,0,0,396.243,63.153Z" fill="#e5e5e5"/>
          </g>
        </g>
        <g id="Group_85" data-name="Group 85">
          <g id="Group_77" data-name="Group 77">
            <path id="Path_165" data-name="Path 165" d="M255.837,93.762a6.382,6.382,0,1,1,6.39-6.382A6.395,6.395,0,0,1,255.837,93.762Zm0-11.079a4.7,4.7,0,1,0,4.7,4.7A4.705,4.705,0,0,0,255.837,82.683Z" fill="#e5e5e5"/>
          </g>
          <g id="Group_78" data-name="Group 78">
            <path id="Path_166" data-name="Path 166" d="M275.895,93.762a6.382,6.382,0,1,1,6.39-6.382A6.393,6.393,0,0,1,275.895,93.762Zm0-11.079a4.7,4.7,0,1,0,4.7,4.7A4.7,4.7,0,0,0,275.895,82.683Z" fill="#e5e5e5"/>
          </g>
          <g id="Group_79" data-name="Group 79">
            <path id="Path_167" data-name="Path 167" d="M295.954,93.762a6.382,6.382,0,1,1,6.388-6.382A6.395,6.395,0,0,1,295.954,93.762Zm0-11.079a4.7,4.7,0,1,0,4.7,4.7A4.705,4.705,0,0,0,295.954,82.683Z" fill="#e5e5e5"/>
          </g>
          <g id="Group_80" data-name="Group 80">
            <path id="Path_168" data-name="Path 168" d="M316.011,93.762a6.382,6.382,0,1,1,6.39-6.382A6.394,6.394,0,0,1,316.011,93.762Zm0-11.079a4.7,4.7,0,1,0,4.7,4.7A4.705,4.705,0,0,0,316.011,82.683Z" fill="#e5e5e5"/>
          </g>
          <g id="Group_81" data-name="Group 81">
            <path id="Path_169" data-name="Path 169" d="M336.071,93.762a6.382,6.382,0,1,1,6.388-6.382A6.395,6.395,0,0,1,336.071,93.762Zm0-11.079a4.7,4.7,0,1,0,4.7,4.7A4.705,4.705,0,0,0,336.071,82.683Z" fill="#e5e5e5"/>
          </g>
          <g id="Group_82" data-name="Group 82">
            <path id="Path_170" data-name="Path 170" d="M356.128,93.762a6.382,6.382,0,1,1,6.388-6.382A6.395,6.395,0,0,1,356.128,93.762Zm0-11.079a4.7,4.7,0,1,0,4.7,4.7A4.705,4.705,0,0,0,356.128,82.683Z" fill="#e5e5e5"/>
          </g>
          <g id="Group_83" data-name="Group 83">
            <path id="Path_171" data-name="Path 171" d="M376.186,93.762a6.382,6.382,0,1,1,6.39-6.382A6.393,6.393,0,0,1,376.186,93.762Zm0-11.079a4.7,4.7,0,1,0,4.7,4.7A4.7,4.7,0,0,0,376.186,82.683Z" fill="#e5e5e5"/>
          </g>
          <g id="Group_84" data-name="Group 84">
            <path id="Path_172" data-name="Path 172" d="M396.243,93.762a6.382,6.382,0,1,1,6.39-6.382A6.393,6.393,0,0,1,396.243,93.762Zm0-11.079a4.7,4.7,0,1,0,4.7,4.7A4.7,4.7,0,0,0,396.243,82.683Z" fill="#e5e5e5"/>
          </g>
        </g>
        <g id="Group_94" data-name="Group 94">
          <g id="Group_86" data-name="Group 86">
            <path id="Path_173" data-name="Path 173" d="M255.837,113.293a6.381,6.381,0,1,1,6.39-6.382A6.394,6.394,0,0,1,255.837,113.293Zm0-11.077a4.7,4.7,0,1,0,4.7,4.695A4.7,4.7,0,0,0,255.837,102.216Z" fill="#e5e5e5"/>
          </g>
          <g id="Group_87" data-name="Group 87">
            <path id="Path_174" data-name="Path 174" d="M275.895,113.293a6.381,6.381,0,1,1,6.39-6.382A6.392,6.392,0,0,1,275.895,113.293Zm0-11.077a4.7,4.7,0,1,0,4.7,4.695A4.7,4.7,0,0,0,275.895,102.216Z" fill="#e5e5e5"/>
          </g>
          <g id="Group_88" data-name="Group 88">
            <path id="Path_175" data-name="Path 175" d="M295.954,113.293a6.381,6.381,0,1,1,6.388-6.382A6.394,6.394,0,0,1,295.954,113.293Zm0-11.077a4.7,4.7,0,1,0,4.7,4.695A4.7,4.7,0,0,0,295.954,102.216Z" fill="#e5e5e5"/>
          </g>
          <g id="Group_89" data-name="Group 89">
            <path id="Path_176" data-name="Path 176" d="M316.011,113.293a6.381,6.381,0,1,1,6.39-6.382A6.392,6.392,0,0,1,316.011,113.293Zm0-11.077a4.7,4.7,0,1,0,4.7,4.695A4.7,4.7,0,0,0,316.011,102.216Z" fill="#e5e5e5"/>
          </g>
          <g id="Group_90" data-name="Group 90">
            <path id="Path_177" data-name="Path 177" d="M336.071,113.293a6.381,6.381,0,1,1,6.388-6.382A6.394,6.394,0,0,1,336.071,113.293Zm0-11.077a4.7,4.7,0,1,0,4.7,4.695A4.705,4.705,0,0,0,336.071,102.216Z" fill="#e5e5e5"/>
          </g>
          <g id="Group_91" data-name="Group 91">
            <path id="Path_178" data-name="Path 178" d="M356.128,113.293a6.381,6.381,0,1,1,6.388-6.382A6.394,6.394,0,0,1,356.128,113.293Zm0-11.077a4.7,4.7,0,1,0,4.7,4.695A4.7,4.7,0,0,0,356.128,102.216Z" fill="#e5e5e5"/>
          </g>
          <g id="Group_92" data-name="Group 92">
            <path id="Path_179" data-name="Path 179" d="M376.186,113.293a6.381,6.381,0,1,1,6.39-6.382A6.392,6.392,0,0,1,376.186,113.293Zm0-11.077a4.7,4.7,0,1,0,4.7,4.695A4.7,4.7,0,0,0,376.186,102.216Z" fill="#e5e5e5"/>
          </g>
          <g id="Group_93" data-name="Group 93">
            <path id="Path_180" data-name="Path 180" d="M396.243,113.293a6.381,6.381,0,1,1,6.39-6.382A6.392,6.392,0,0,1,396.243,113.293Zm0-11.077a4.7,4.7,0,1,0,4.7,4.695A4.7,4.7,0,0,0,396.243,102.216Z" fill="#e5e5e5"/>
          </g>
        </g>
        <g id="Group_103" data-name="Group 103">
          <g id="Group_95" data-name="Group 95">
            <path id="Path_181" data-name="Path 181" d="M255.837,132.824a6.381,6.381,0,1,1,6.39-6.38A6.393,6.393,0,0,1,255.837,132.824Zm0-11.075a4.695,4.695,0,1,0,4.7,4.695A4.7,4.7,0,0,0,255.837,121.749Z" fill="#e5e5e5"/>
          </g>
          <g id="Group_96" data-name="Group 96">
            <path id="Path_182" data-name="Path 182" d="M275.895,132.824a6.381,6.381,0,1,1,6.39-6.38A6.392,6.392,0,0,1,275.895,132.824Zm0-11.075a4.695,4.695,0,1,0,4.7,4.695A4.7,4.7,0,0,0,275.895,121.749Z" fill="#e5e5e5"/>
          </g>
          <g id="Group_97" data-name="Group 97">
            <path id="Path_183" data-name="Path 183" d="M295.954,132.824a6.38,6.38,0,1,1,6.388-6.38A6.393,6.393,0,0,1,295.954,132.824Zm0-11.075a4.695,4.695,0,1,0,4.7,4.695A4.7,4.7,0,0,0,295.954,121.749Z" fill="#e5e5e5"/>
          </g>
          <g id="Group_98" data-name="Group 98">
            <path id="Path_184" data-name="Path 184" d="M316.011,132.824a6.381,6.381,0,1,1,6.39-6.38A6.392,6.392,0,0,1,316.011,132.824Zm0-11.075a4.695,4.695,0,1,0,4.7,4.695A4.7,4.7,0,0,0,316.011,121.749Z" fill="#e5e5e5"/>
          </g>
          <g id="Group_99" data-name="Group 99">
            <path id="Path_185" data-name="Path 185" d="M336.071,132.824a6.38,6.38,0,1,1,6.388-6.38A6.394,6.394,0,0,1,336.071,132.824Zm0-11.075a4.695,4.695,0,1,0,4.7,4.695A4.7,4.7,0,0,0,336.071,121.749Z" fill="#e5e5e5"/>
          </g>
          <g id="Group_100" data-name="Group 100">
            <path id="Path_186" data-name="Path 186" d="M356.128,132.824a6.38,6.38,0,1,1,6.388-6.38A6.393,6.393,0,0,1,356.128,132.824Zm0-11.075a4.695,4.695,0,1,0,4.7,4.695A4.7,4.7,0,0,0,356.128,121.749Z" fill="#e5e5e5"/>
          </g>
          <g id="Group_101" data-name="Group 101">
            <path id="Path_187" data-name="Path 187" d="M376.186,132.824a6.381,6.381,0,1,1,6.39-6.38A6.392,6.392,0,0,1,376.186,132.824Zm0-11.075a4.695,4.695,0,1,0,4.7,4.695A4.7,4.7,0,0,0,376.186,121.749Z" fill="#e5e5e5"/>
          </g>
          <g id="Group_102" data-name="Group 102">
            <path id="Path_188" data-name="Path 188" d="M396.243,132.824a6.381,6.381,0,1,1,6.39-6.38A6.392,6.392,0,0,1,396.243,132.824Zm0-11.075a4.695,4.695,0,1,0,4.7,4.695A4.7,4.7,0,0,0,396.243,121.749Z" fill="#e5e5e5"/>
          </g>
        </g>
      </g>
    </g>
    <path id="Color_Overlay" data-name="Color Overlay" d="M117.239,310.8a6.381,6.381,0,1,1,6.38,6.39A6.392,6.392,0,0,1,117.239,310.8Zm1.686,0a4.7,4.7,0,1,0,4.694-4.7A4.7,4.7,0,0,0,118.924,310.8Zm-21.218,0a6.381,6.381,0,1,1,6.38,6.39A6.392,6.392,0,0,1,97.706,310.8Zm1.686,0a4.7,4.7,0,1,0,4.694-4.7A4.7,4.7,0,0,0,99.392,310.8Zm-21.218,0a6.382,6.382,0,1,1,6.382,6.39A6.393,6.393,0,0,1,78.173,310.8Zm1.686,0a4.7,4.7,0,1,0,4.7-4.7A4.7,4.7,0,0,0,79.859,310.8Zm-21.217,0a6.381,6.381,0,1,1,6.382,6.39A6.392,6.392,0,0,1,58.642,310.8Zm1.686,0a4.7,4.7,0,1,0,4.7-4.7A4.7,4.7,0,0,0,60.328,310.8Zm-21.217,0a6.381,6.381,0,1,1,6.38,6.39A6.392,6.392,0,0,1,39.111,310.8Zm1.686,0a4.695,4.695,0,1,0,4.694-4.7A4.7,4.7,0,0,0,40.8,310.8Zm76.442-20.057a6.381,6.381,0,1,1,6.38,6.39A6.391,6.391,0,0,1,117.239,290.738Zm1.686,0a4.7,4.7,0,1,0,4.694-4.7A4.7,4.7,0,0,0,118.924,290.738Zm-21.218,0a6.381,6.381,0,1,1,6.38,6.39A6.391,6.391,0,0,1,97.706,290.738Zm1.686,0a4.7,4.7,0,1,0,4.694-4.7A4.7,4.7,0,0,0,99.392,290.738Zm-21.218,0a6.382,6.382,0,1,1,6.382,6.39A6.393,6.393,0,0,1,78.173,290.738Zm1.686,0a4.7,4.7,0,1,0,4.7-4.7A4.7,4.7,0,0,0,79.859,290.738Zm-21.217,0a6.381,6.381,0,1,1,6.382,6.39A6.392,6.392,0,0,1,58.642,290.738Zm1.686,0a4.7,4.7,0,1,0,4.7-4.7A4.7,4.7,0,0,0,60.328,290.738Zm-21.217,0a6.381,6.381,0,1,1,6.38,6.39A6.391,6.391,0,0,1,39.111,290.738Zm1.686,0a4.695,4.695,0,1,0,4.694-4.7A4.7,4.7,0,0,0,40.8,290.738Zm76.442-20.057a6.381,6.381,0,1,1,6.38,6.388A6.393,6.393,0,0,1,117.239,270.68Zm1.686,0a4.7,4.7,0,1,0,4.694-4.7A4.7,4.7,0,0,0,118.924,270.68Zm-21.218,0a6.381,6.381,0,1,1,6.38,6.388A6.393,6.393,0,0,1,97.706,270.68Zm1.686,0a4.7,4.7,0,1,0,4.694-4.7A4.7,4.7,0,0,0,99.392,270.68Zm-21.218,0a6.382,6.382,0,1,1,6.382,6.388A6.394,6.394,0,0,1,78.173,270.68Zm1.686,0a4.7,4.7,0,1,0,4.7-4.7A4.7,4.7,0,0,0,79.859,270.68Zm-21.217,0a6.381,6.381,0,1,1,6.382,6.388A6.393,6.393,0,0,1,58.642,270.68Zm1.686,0a4.7,4.7,0,1,0,4.7-4.7A4.7,4.7,0,0,0,60.328,270.68Zm-21.217,0a6.381,6.381,0,1,1,6.38,6.388A6.393,6.393,0,0,1,39.111,270.68Zm1.686,0a4.695,4.695,0,1,0,4.694-4.7A4.7,4.7,0,0,0,40.8,270.68Zm76.442-20.057a6.381,6.381,0,1,1,6.38,6.388A6.393,6.393,0,0,1,117.239,250.623Zm1.686,0a4.7,4.7,0,1,0,4.694-4.7A4.7,4.7,0,0,0,118.924,250.623Zm-21.218,0a6.381,6.381,0,1,1,6.38,6.388A6.393,6.393,0,0,1,97.706,250.623Zm1.686,0a4.7,4.7,0,1,0,4.694-4.7A4.7,4.7,0,0,0,99.392,250.623Zm-21.218,0a6.382,6.382,0,1,1,6.382,6.388A6.395,6.395,0,0,1,78.173,250.623Zm1.686,0a4.7,4.7,0,1,0,4.7-4.7A4.705,4.705,0,0,0,79.859,250.623Zm-21.217,0a6.381,6.381,0,1,1,6.382,6.388A6.394,6.394,0,0,1,58.642,250.623Zm1.686,0a4.7,4.7,0,1,0,4.7-4.7A4.705,4.705,0,0,0,60.328,250.623Zm-21.217,0a6.381,6.381,0,1,1,6.38,6.388A6.393,6.393,0,0,1,39.111,250.623Zm1.686,0a4.695,4.695,0,1,0,4.694-4.7A4.7,4.7,0,0,0,40.8,250.623Zm76.442-20.059a6.381,6.381,0,1,1,6.38,6.39A6.392,6.392,0,0,1,117.239,230.564Zm1.686,0a4.7,4.7,0,1,0,4.694-4.7A4.7,4.7,0,0,0,118.924,230.564Zm-21.218,0a6.381,6.381,0,1,1,6.38,6.39A6.392,6.392,0,0,1,97.706,230.564Zm1.686,0a4.7,4.7,0,1,0,4.694-4.7A4.7,4.7,0,0,0,99.392,230.564Zm-21.218,0a6.382,6.382,0,1,1,6.382,6.39A6.393,6.393,0,0,1,78.173,230.564Zm1.686,0a4.7,4.7,0,1,0,4.7-4.7A4.7,4.7,0,0,0,79.859,230.564Zm-21.217,0a6.381,6.381,0,1,1,6.382,6.39A6.392,6.392,0,0,1,58.642,230.564Zm1.686,0a4.7,4.7,0,1,0,4.7-4.7A4.7,4.7,0,0,0,60.328,230.564Zm-21.217,0a6.381,6.381,0,1,1,6.38,6.39A6.392,6.392,0,0,1,39.111,230.564Zm1.686,0a4.695,4.695,0,1,0,4.694-4.7A4.7,4.7,0,0,0,40.8,230.564Zm76.442-20.057a6.381,6.381,0,1,1,6.38,6.388A6.393,6.393,0,0,1,117.239,210.506Zm1.686,0a4.7,4.7,0,1,0,4.694-4.7A4.7,4.7,0,0,0,118.924,210.506Zm-21.218,0a6.381,6.381,0,1,1,6.38,6.388A6.393,6.393,0,0,1,97.706,210.506Zm1.686,0a4.7,4.7,0,1,0,4.694-4.7A4.7,4.7,0,0,0,99.392,210.506Zm-21.218,0a6.382,6.382,0,1,1,6.382,6.388A6.394,6.394,0,0,1,78.173,210.506Zm1.686,0a4.7,4.7,0,1,0,4.7-4.7A4.7,4.7,0,0,0,79.859,210.506Zm-21.217,0a6.381,6.381,0,1,1,6.382,6.388A6.393,6.393,0,0,1,58.642,210.506Zm1.686,0a4.7,4.7,0,1,0,4.7-4.7A4.7,4.7,0,0,0,60.328,210.506Zm-21.217,0a6.381,6.381,0,1,1,6.38,6.388A6.393,6.393,0,0,1,39.111,210.506Zm1.686,0a4.695,4.695,0,1,0,4.694-4.7A4.7,4.7,0,0,0,40.8,210.506Zm76.442-20.06a6.381,6.381,0,1,1,6.38,6.39A6.392,6.392,0,0,1,117.239,190.446Zm1.686,0a4.7,4.7,0,1,0,4.694-4.7A4.7,4.7,0,0,0,118.924,190.446Zm-21.218,0a6.381,6.381,0,1,1,6.38,6.39A6.392,6.392,0,0,1,97.706,190.446Zm1.686,0a4.7,4.7,0,1,0,4.694-4.7A4.7,4.7,0,0,0,99.392,190.446Zm-21.218,0a6.382,6.382,0,1,1,6.382,6.39A6.393,6.393,0,0,1,78.173,190.446Zm1.686,0a4.7,4.7,0,1,0,4.7-4.7A4.7,4.7,0,0,0,79.859,190.446Zm-21.217,0a6.381,6.381,0,1,1,6.382,6.39A6.392,6.392,0,0,1,58.642,190.446Zm1.686,0a4.7,4.7,0,1,0,4.7-4.7A4.7,4.7,0,0,0,60.328,190.446Zm-21.217,0a6.381,6.381,0,1,1,6.38,6.39A6.392,6.392,0,0,1,39.111,190.446Zm1.686,0a4.695,4.695,0,1,0,4.694-4.7A4.7,4.7,0,0,0,40.8,190.446Zm76.442-20.057a6.381,6.381,0,1,1,6.38,6.39A6.393,6.393,0,0,1,117.239,170.389Zm1.686,0a4.7,4.7,0,1,0,4.694-4.7A4.7,4.7,0,0,0,118.924,170.389Zm-21.218,0a6.381,6.381,0,1,1,6.38,6.39A6.393,6.393,0,0,1,97.706,170.389Zm1.686,0a4.7,4.7,0,1,0,4.694-4.7A4.7,4.7,0,0,0,99.392,170.389Zm-21.218,0a6.382,6.382,0,1,1,6.382,6.39A6.395,6.395,0,0,1,78.173,170.389Zm1.686,0a4.7,4.7,0,1,0,4.7-4.7A4.7,4.7,0,0,0,79.859,170.389Zm-21.217,0a6.381,6.381,0,1,1,6.382,6.39A6.394,6.394,0,0,1,58.642,170.389Zm1.686,0a4.7,4.7,0,1,0,4.7-4.7A4.7,4.7,0,0,0,60.328,170.389Zm-21.217,0a6.381,6.381,0,1,1,6.38,6.39A6.393,6.393,0,0,1,39.111,170.389Zm1.686,0a4.695,4.695,0,1,0,4.694-4.7A4.7,4.7,0,0,0,40.8,170.389Z" fill="#e5e5e5"/>
  </g>
</svg>
